<svg xmlns="http://www.w3.org/2000/svg" viewBox="0 0 384 384">
  <path stroke="#fff" fill="none" stroke-width="2" d="M16 312v16c0 18 14 32 32 32h288c18 0 32-14 32-32v-16H16zM192 24C48 24 16 95 16 168h352c0-73-32-144-176-144zM80 136a16 16 0 110-32 16 16 0 010 32zm48-48a16 16 0 110-32 16 16 0 010 32zm64 48a16 16 0 110-32 16 16 0 010 32zm64-48a16 16 0 110-32 16 16 0 010 32zm48 48a16 16 0 110-32 16 16 0 010 32zM368 248h-32l-48 32-48-32H16c-9 0-16 7-16 16v16c0 9 7 16 16 16h352c9 0 16-7 16-16v-16c0-9-7-16-16-16zM346 202c-7 8-13 14-26 14s-19-6-26-14c-9-8-19-18-38-18s-30 10-38 18c-7 8-13 14-26 14s-19-6-26-14c-9-8-19-18-38-18s-30 10-38 18c-7 8-13 14-26 14s-19-6-26-14c-9-8-19-18-38-18v16c13 0 19 6 26 14 8 8 19 18 38 18s29-10 38-18c7-8 13-14 26-14s19 6 26 14c8 8 19 18 38 18s29-10 38-18c7-8 13-14 26-14s19 6 26 14c8 8 19 18 38 18s29-10 38-18c7-8 13-14 26-14v-16c-19 0-30 10-38 18z"/>
</svg>