<svg width="512" height="512" xmlns="http://www.w3.org/2000/svg">
  <path d="M279.9 16.7L312.3 46l42.7-9.2a35.6 35.6 0 0141.3 23.9l13.4 41.6 41.6 13.4a35.6 35.6 0 0123.9 41.3l-9.2 42.7 29.3 32.4a35.6 35.6 0 010 47.8L466 312.3l9.2 42.7a35.6 35.6 0 01-23.9 41.3l-41.6 13.4-13.4 41.6a35.6 35.6 0 01-41.3 23.9l-42.7-9.2-32.4 29.3a35.6 35.6 0 01-47.8 0L199.7 466l-42.7 9.2a35.6 35.6 0 01-41.3-23.9l-13.4-41.6-41.6-13.4A35.6 35.6 0 0136.8 355l9.2-42.7-29.3-32.4a35.6 35.6 0 010-47.8L46 199.7 36.8 157a35.6 35.6 0 0123.9-41.3l41.6-13.4 13.4-41.6A35.6 35.6 0 01157 36.8l42.7 9.2 32.4-29.3a35.6 35.6 0 0147.8 0z" fill="#ffb357"/>
  <path d="M256 444c-103.7 0-188-84.3-188-188S152.4 68 256 68s188 84.4 188 188-84.3 188-188 188z" fill="#fce3a0"/>
  <ellipse cx="116.8" cy="248.3" rx="29.2" ry="23.3" fill="#ff8e9e"/>
  <ellipse cx="275.2" cy="248.8" rx="29.2" ry="23.3" fill="#ff8e9e"/>
  <path d="M320.3 79.4a187.3 187.3 0 00-83-10.5c-3.9.4-7.2 3-8.6 6.7-1.7 4.8.3 10.2 4.9 12.5a151.2 151.2 0 01-102.7 282.1 10.2 10.2 0 00-9.4 17.1 187.8 187.8 0 10198.8-308z" fill="#82888b"/>
  <path d="M278 95.3a158.6 158.6 0 00-47.3-9.4 10 10 0 002.9 2.2 151.2 151.2 0 01-102.7 282.1 10 10 0 00-3.7-.2A158.6 158.6 0 10278 95.3z" fill="#676f72"/>
  <path d="M256 60.5C148.2 60.5 60.5 148.2 60.5 256S148.2 451.5 256 451.5 451.5 363.8 451.5 256 363.8 60.5 256 60.5zm0 376a180 180 0 01-130.5-56l.7-1.3c.4-1.2 1.7-2 3-1.7a158.8 158.8 0 00146.3-268.4 7.5 7.5 0 10-10.5 10.7 143.8 143.8 0 01-132.4 243.1c-6.6-1.5-13.2.9-17.4 5.9A179.6 179.6 0 0175.5 256c0-87.4 62.5-160.5 145-177 0 6.7 3.7 12.8 9.7 15.8 4.3 2.2 8.5 4.7 12.6 7.3a7.5 7.5 0 108.1-12.6c-13.2-8.6-16.4-7.9-15.1-11.3.1-.5.3-1 .3-1.6A180.7 180.7 0 01436.4 256c0 99.5-80.9 180.5-180.4 180.5z"/>
  <path d="M512 256c0-10.7-4-21-11.1-28.9L474 197.5c9.2-42.6 9.4-42 9.4-48a43 43 0 00-29.9-41l-38-12.2-12.1-38a43 43 0 00-50-28.8l-39 8.4L284.9 11a43 43 0 00-57.8 0L197.6 38l-39-8.4a43 43 0 00-50 28.9l-12.3 38-38 12.1a43 43 0 00-28.8 50l8.4 39L11 227.1a43 43 0 000 57.8L38 314.5c-9.2 42.6-9.4 42-9.4 48a43 43 0 0029.9 41l38 12.2 12.1 38a43 43 0 0050 28.8l39-8.4 29.6 26.8a43 43 0 0057.8 0l29.6-26.8 39 8.4a43 43 0 0050-28.9l1.9-6a7.5 7.5 0 10-14.3-4.5l-2 6a28 28 0 01-32.5 18.7l-42.8-9.1c-2.3-.5-4.8.1-6.6 1.7l-32.4 29.3a28 28 0 01-37.6 0l-32.4-29.3a7.5 7.5 0 00-6.6-1.7l-42.8 9.1a28 28 0 01-32.6-18.8l-13.4-41.6a7.5 7.5 0 00-4.8-4.8L63 389.2a28 28 0 01-19.5-26.7c0-4-.2-2 9.8-48.7.5-2.3-.1-4.8-1.7-6.6l-29.3-32.4a28 28 0 010-37.6l29.3-32.4a7.5 7.5 0 001.7-6.6l-9.1-42.8A28 28 0 0163 122.8l41.6-13.4a7.5 7.5 0 004.8-4.8L122.8 63a28 28 0 0132.6-18.8l42.8 9.1c2.3.5 4.8-.1 6.6-1.7l32.4-29.3a28 28 0 0137.6 0l32.4 29.3a7.5 7.5 0 006.6 1.7l42.8-9.1c14-3 28.1 5 32.6 18.8l13.4 41.6a7.5 7.5 0 004.8 4.8l41.6 13.4a28 28 0 0119.5 26.7c0 4 .2 2-9.8 48.7-.5 2.3.1 4.8 1.7 6.6l29.3 32.4a28 28 0 010 37.6l-29.3 32.4a7.5 7.5 0 00-1.7 6.6l9.1 42.8a28 28 0 01-18.8 32.6l-41.6 13.4a7.5 7.5 0 00-4.8 4.8l-2.3 7.1a7.5 7.5 0 0014.3 4.6l1-3.4 38-12.2a43 43 0 0029-50l-8.5-39 26.8-29.6A43 43 0 00512 256z"/>
  <path d="M131.5 206a7.5 7.5 0 00-7.5 7.5v10a7.5 7.5 0 0015 0v-10c0-4.1-3.4-7.5-7.5-7.5zM252 213.5v10a7.5 7.5 0 0015 0v-10a7.5 7.5 0 00-15 0zM215.2 234.7a7.5 7.5 0 00-10 3.6 10.3 10.3 0 01-18.5 0 7.5 7.5 0 00-13.5 6.4 25.3 25.3 0 0045.6 0c1.8-3.7.2-8.2-3.6-10zM342 260.4a7.5 7.5 0 00-7.5 7.5v10a7.5 7.5 0 0015 0v-10c0-4.2-3.4-7.5-7.5-7.5zM410 260.4a7.5 7.5 0 00-7.5 7.5v10a7.5 7.5 0 0015 0v-10c0-4.2-3.4-7.5-7.5-7.5zM391.7 268.9a7.5 7.5 0 00-10 3.5c-.9 2-3 3.2-5.2 3.2a5.9 5.9 0 01-5.2-3.2 7.5 7.5 0 00-10-3.5c-10.5 5 0 21.7 15.2 21.7 8 0 15.4-4.6 18.8-11.7 1.8-3.7.2-8.2-3.6-10z"/>
</svg>