<svg width="512" height="512" xmlns="http://www.w3.org/2000/svg">
  <path d="M256 7.5A246.9 246.9 0 0080.3 80.3c-47 47-72.8 109.3-72.8 175.7s25.8 128.8 72.8 175.7a246.9 246.9 0 00227.1 67.5V12.8c-16.7-3.5-34-5.3-51.4-5.3z" fill="#d4d4d5"/>
  <path d="M504.5 256c0-66.4-25.8-128.8-72.8-175.7a246.8 246.8 0 00-124.3-67.5 246.8 246.8 0 00-124.3 67.5c-47 47-72.8 109.3-72.8 175.7s25.9 128.8 72.8 175.7a246.8 246.8 0 00124.3 67.5 246.8 246.8 0 00124.3-67.5c47-47 72.8-109.3 72.8-175.7z" fill="#efedee"/>
  <g fill="#d4d4d5">
    <circle cx="403.8" cy="304" r="45"/>
    <circle cx="183.8" cy="124" r="30"/>
    <circle cx="312" cy="421" r="15"/>
  </g>
  <circle cx="67.5" cy="256" r="15" fill="#b9bbbc"/>
  <circle cx="373.8" cy="109" r="15" fill="#d4d4d5"/>
  <path d="M183.5 432l-61.9-101.6a60 60 0 0035.9 108 58.5 58.5 0 0026-6.4z" fill="#b9bbbc"/>
  <path d="M217.5 378.5a60 60 0 00-95.9-48.1c11.8 37.8 33 72.8 61.9 101.7.2.2-.3-.3 0 0 20-9.8 34-30 34-53.6z" fill="#d4d4d5"/>
  <ellipse cx="177.6" cy="227.7" rx="29.2" ry="23.3" fill="#ff8e9e"/>
  <ellipse cx="-335.8" cy="-227.8" rx="29.2" ry="23.3" fill="#ff8e9e"/>
  <path d="M48 48c4.5-1.3 8.9-3.1 12.9-5.6 4.8-3 4.8-9.9 0-12.8-4-2.5-8.4-4.3-13-5.5-1.2-4.6-3-9-5.5-13a7.5 7.5 0 00-12.8 0c-2.5 4-4.3 8.4-5.5 13-4.6 1.2-9 3-13 5.5a7.5 7.5 0 000 12.8c4 2.5 8.4 4.3 13 5.5 1.2 4.6 3 9 5.5 13 3 4.8 9.9 4.8 12.8 0 2.5-4 4.3-8.4 5.5-13zM448 448.1a66.7 66.7 0 0018.1-7.7 10.5 10.5 0 000-18c-5.5-3.4-11.6-6-18.1-7.7a66.7 66.7 0 00-7.7-18.2 10.5 10.5 0 00-18 0c-3.5 5.6-6.1 11.7-7.8 18.2a66.7 66.7 0 00-18.2 7.7 10.5 10.5 0 000 18c5.6 3.4 11.7 6 18.2 7.7a66.7 66.7 0 007.7 18.2 10.5 10.5 0 0018 0c3.5-5.6 6-11.7 7.8-18.2z" fill="#ffce71"/>
  <path d="M512 256A255.9 255.9 0 0059 92.4a7.5 7.5 0 0011.6 9.6A240.9 240.9 0 01497 256c0 52.3-16.2 101.5-46.9 142.9a74 74 0 00-3.4-6.3 18 18 0 00-30.9 0c-3 5-5.5 10.4-7.3 16-5.6 1.8-11 4.3-16 7.4a18 18 0 000 30.8c2 1.3 4 2.4 6.2 3.4A237.5 237.5 0 01256 497 240.9 240.9 0 0153.3 125.4a7.5 7.5 0 10-12.6-8.1 255.9 255.9 0 00369.9 342.8c1.5 3.5 3.2 6.9 5.2 10.1a18 18 0 0030.9 0c3-5 5.5-10.4 7.3-16 5.6-1.8 11-4.3 16-7.4a18 18 0 000-30.8c-3.2-2-6.6-3.7-10-5.2A254 254 0 00512 256zm-49.8 172.8c2 1.2 2 4 0 5.2-5 3-10.4 5.4-16.1 6.9-7.1 1.8-3.8 7.7-12.2 21.5a3 3 0 01-5.3 0c-8.4-13.8-5.1-19.7-12.2-21.5a59.6 59.6 0 01-16.2-6.9 3 3 0 010-5.2c13.8-8.5 19.7-5.1 21.6-12.3a59.2 59.2 0 016.8-16.1c1.3-2 4-2 5.3 0a59.8 59.8 0 016.8 16.1c1.8 7.2 7.7 3.8 21.5 12.3z"/>
  <path d="M184 193.5v10a7.5 7.5 0 0015 0v-10a7.5 7.5 0 00-15 0zM327 203.5v-10a7.5 7.5 0 00-15 0v10a7.5 7.5 0 0015 0zM256 239c9.7 0 18.6-5.6 22.8-14.3a7.5 7.5 0 10-13.6-6.4 10.3 10.3 0 01-18.5 0 7.5 7.5 0 00-13.5 6.4c4.2 8.7 13.1 14.3 22.8 14.3zM403.8 266.5a7.5 7.5 0 100-15 52.6 52.6 0 1042.6 83.3 7.5 7.5 0 10-12.2-8.8 37.5 37.5 0 11-30.4-59.5zM161.6 102.5c-3.6-2-8.2-.8-10.2 2.7A37.5 37.5 0 10182 86.5a7.5 7.5 0 10.7 15 22.5 22.5 0 11-18.5 11.3c2.1-3.6.9-8.2-2.7-10.3zM156.7 431c-18.7 0-36-10.6-45.3-27.4a7.5 7.5 0 10-13.1 7.2 66.4 66.4 0 0088.8 28v-.1c6.8 0 54.1-35.7 32.6-86.5a67.5 67.5 0 00-62.2-41.2 7.5 7.5 0 000 15c14 0 27.2 5.4 37.1 15.3 33.3 33.4 9 89.6-38 89.6zM97.5 371a7.5 7.5 0 000 15c4.1 0 7.5-3.4 7.5-7.5 0-4.2-3.4-7.6-7.5-7.6zM7.2 48.8A55 55 0 0018.1 54a55 55 0 005 10.9 15 15 0 0025.7 0A55 55 0 0054 53.9a55 55 0 0010.9-5 15 15 0 000-25.7A55 55 0 0053.9 18a55 55 0 00-5-10.9 15 15 0 00-25.7 0A55 55 0 0018 18.1a55 55 0 00-10.9 5 15 15 0 000 25.7zM26 31.3a7.5 7.5 0 005.3-5.3c1-3.9 2.6-7.6 4.7-11 2.1 3.4 3.7 7.1 4.7 11a7.5 7.5 0 005.3 5.3c3.9 1 7.6 2.6 11 4.7a40 40 0 01-11 4.7 7.5 7.5 0 00-5.3 5.3c-1 3.9-2.6 7.6-4.7 11a40 40 0 01-4.7-11 7.5 7.5 0 00-5.3-5.3c-3.9-1-7.6-2.6-11-4.7 3.4-2.1 7.1-3.7 11-4.7z"/>
</svg>