<svg height="512" width="512" xmlns="http://www.w3.org/2000/svg">
  <path d="M280 17l32 29 43-9c18-4 36 6 41 24l14 41 41 14c18 5 28 23 24 41l-9 43 29 32c13 14 13 34 0 48l-29 32 9 43c4 18-6 36-24 41l-41 14-14 41c-5 18-23 28-41 24l-43-9-32 29a36 36 0 01-48 0l-32-29-43 9c-18 4-36-6-41-24l-14-41-41-14c-18-5-28-23-24-41l9-43-29-32a36 36 0 010-48l29-32-9-43c-4-18 6-36 24-41l41-14 14-41c5-18 23-28 41-24l43 9 32-29c14-13 34-13 48 0z" fill="#ffb357"/>
  <path d="M256 444a188 188 0 110-376 188 188 0 010 376z" fill="#fce3a0"/>
  <path d="M170 256c0-86 58-159 137-181A188 188 0 0068 256a188 188 0 00239 181c-79-22-137-95-137-181z" fill="#ffce71"/>
  <ellipse cx="176.8" cy="248.3" fill="#ff8e9e" rx="29.2" ry="23.3"/>
  <ellipse cx="335.2" cy="248.8" fill="#ff8e9e" rx="29.2" ry="23.3"/>
  <g fill="#313d40">
    <path d="M192 206c-5 0-8 3-8 8v10a8 8 0 0015 0v-10c0-5-3-8-7-8zM320 206c-5 0-8 3-8 8v10a8 8 0 0015 0v-10c0-5-3-8-7-8zM275 235c-4-2-8 0-10 3-1 4-5 6-9 6s-8-2-9-6a8 8 0 00-14 7 25 25 0 0046 0c2-4 0-8-4-10z"/>
  </g>
  <path d="M199 224v-10a8 8 0 00-15 0v10a8 8 0 0015 0zM327 224v-10a8 8 0 00-15 0v10a8 8 0 0015 0zM256 259c10 0 19-6 23-14a7 7 0 10-14-7c-1 4-5 6-9 6s-8-2-9-6a7 7 0 00-14 7c4 8 13 14 23 14z"/>
  <path d="M164 101a7 7 0 10-8-13 197 197 0 00-95 168A196 196 0 10256 61c-25 0-49 4-72 13a8 8 0 006 14 181 181 0 11-26 13z"/>
  <path d="M512 256c0-11-4-21-11-29l-27-29c9-43 9-42 9-48 0-19-12-36-29-41l-38-13-13-38c-5-17-22-29-41-29-6 0-5 0-48 9l-29-27a43 43 0 00-58 0l-29 27c-43-9-42-9-48-9-19 0-36 12-41 29L96 96l-38 13c-17 5-29 22-29 41 0 6 0 5 9 48l-27 29a43 43 0 000 58l27 29c-9 43-9 42-9 48 0 19 12 36 29 41l38 13 13 38c5 17 22 29 41 29 6 0 5 0 48-9l29 27a43 43 0 0058 0l29-27c43 9 42 9 48 9 19 0 36-12 41-29l2-6a7 7 0 10-14-5l-2 6c-4 12-14 19-27 19-4 0-2 1-48-9-3-1-5 0-7 1l-32 30a28 28 0 01-38 0l-32-30c-2-1-4-2-7-1-47 10-45 9-48 9-13 0-23-7-27-19l-14-42c0-2-2-4-4-4l-42-14c-12-4-19-14-19-27 0-4-1-2 9-48 1-3 0-5-1-7l-30-32a28 28 0 010-38l30-32c1-2 2-4 1-7-10-47-9-45-9-48 0-13 7-23 19-27l42-14c2 0 4-2 4-4l14-42c4-12 14-19 27-19 4 0 2-1 48 9 3 1 5 0 7-1l32-30a28 28 0 0138 0l32 30c2 1 4 2 7 1 47-10 45-9 48-9 13 0 23 7 27 19l14 42c0 2 2 4 4 4l42 14c12 4 19 14 19 27 0 4 1 2-9 48-1 3 0 5 1 7l30 32a28 28 0 010 38l-30 32c-1 2-2 4-1 7l9 43v5c0 13-7 23-19 27l-42 14c-2 0-4 2-4 4l-3 8a7 7 0 0015 4l1-3 38-13a43 43 0 0029-50l-9-39 27-29c7-8 11-18 11-29z"/>
</svg>