<svg width="50" height="50" viewBox="0 0 37.5 37.57" xmlns="http://www.w3.org/2000/svg">
  <g fill="#fff" >
    <path d="M36.86 11.28A13.3 13.3 0 0036 6.87a8.88 8.88 0 00-2.1-3.23 8.96 8.96 0 00-3.23-2.1 13.34 13.34 0 00-4.41-.85C24.32.6 23.7.58 18.76.58c-4.95 0-5.57.02-7.5.1-1.94.09-3.27.4-4.42.85a8.88 8.88 0 00-3.23 2.1 8.96 8.96 0 00-2.1 3.23 13.34 13.34 0 00-.85 4.42c-.1 1.94-.11 2.56-.11 7.5 0 4.95.02 5.57.1 7.51.09 1.94.4 3.27.85 4.42a8.98 8.98 0 002.1 3.23 8.96 8.96 0 003.23 2.1c1.16.44 2.48.76 4.42.84 1.94.09 2.56.1 7.5.1 4.94 0 5.56-.01 7.5-.1a13.3 13.3 0 004.42-.84A9.31 9.31 0 0036 30.7c.45-1.16.76-2.48.84-4.42.09-1.94.11-2.56.11-7.5 0-4.95 0-5.57-.1-7.5zm-3.28 14.87a9.98 9.98 0 01-.63 3.38 6.04 6.04 0 01-3.45 3.45c-.64.25-1.61.55-3.38.63-1.92.09-2.5.1-7.36.1-4.85 0-5.44-.01-7.35-.1a9.98 9.98 0 01-3.38-.63 5.6 5.6 0 01-2.1-1.35 5.66 5.66 0 01-1.35-2.1c-.25-.64-.55-1.6-.63-3.37-.08-1.92-.1-2.5-.1-7.36s.02-5.44.1-7.35c.08-1.78.38-2.74.63-3.38.3-.8.75-1.51 1.37-2.1.59-.6 1.3-1.06 2.09-1.35.64-.25 1.6-.55 3.38-.63 1.92-.08 2.5-.1 7.35-.1 4.87 0 5.44.02 7.36.1 1.77.08 2.73.38 3.37.63.8.29 1.51.75 2.1 1.36.6.59 1.06 1.3 1.35 2.09.25.64.55 1.6.63 3.38.09 1.92.1 2.5.1 7.35s-.01 5.43-.1 7.35z"/>
    <path d="M18.76 9.43a9.36 9.36 0 100 18.71 9.36 9.36 0 000-18.7zm0 15.42a6.07 6.07 0 110-12.13 6.07 6.07 0 010 12.13zM30.66 9.06a2.18 2.18 0 11-4.36 0 2.18 2.18 0 014.36 0z"/>
  </g>
</svg>