<svg version="1.1" viewBox="0 0 512 292" xmlns="http://www.w3.org/2000/svg">
 <path d="m459.24 238.14c-0.80919-1.6182-7.2827-16.184-40.459-46.933-34.795-32.368-30.749-27.512 11.329-83.346 25.894-33.177 35.604-54.216 32.367-63.117-3.2367-8.0919-21.848-6.4735-21.848-6.4735l-62.307 0.80921s-4.0459-0.80921-8.0919 1.6184c-3.2368 1.6184-4.8551 6.4735-4.8551 6.4735s-10.519 25.894-23.466 48.551c-27.512 46.933-38.841 49.36-42.887 46.124-10.519-6.4735-8.0919-26.703-8.0919-41.268 0-46.124 6.4735-64.735-13.756-69.59-6.4735-1.6184-11.329-3.2367-29.131-3.2367-21.848 0-41.269 0-51.788 5.6643-6.4735 3.2367-12.138 10.519-8.9011 11.329 4.0459 0.80918 13.756 2.4276 18.611 8.901 6.4735 8.9011 5.6643 28.322 5.6643 28.322s4.0459 54.215-8.0919 60.689c-8.901 4.8552-20.23-4.855-45.314-47.742-12.138-21.848-21.848-46.124-21.848-46.124s-1.6184-4.0459-4.8551-6.4735c-4.0459-3.2367-9.7102-4.0459-9.7102-4.0459h-59.071s-8.9011 0.80921-12.138 4.0459c-3.2367 4.0459-0.80919 10.519-0.80919 10.519s46.933 108.43 98.721 163.46c48.551 50.17 103.58 46.933 103.58 46.933h24.276s7.2827-0.80911 11.329-4.8551c3.2368-4.0459 3.2368-11.329 3.2368-11.329s0-33.177 15.375-38.032c14.565-4.8552 34.795 32.367 55.025 46.124 16.184 11.329 27.512 8.901 27.512 8.901l55.834-0.80916s28.322-1.6182 14.565-25.085z" stroke-width=".80919"/>
</svg>
