<svg width="50" height="29" version="1.1" viewBox="0 0 2.3438 1.3594" xmlns="http://www.w3.org/2000/svg">
 <path fill="#fff" d="m1.7974 0.76113c-0.030042-0.03953-0.021347-0.056132 0-0.090919 7.878e-4 0 0.25378-0.35023 0.27987-0.46882 0.01344-0.043483 0-0.075107-0.062457-0.075107h-0.20714c-0.052969 0-0.077479 0.027671-0.090131 0.057714 0 0-0.10594 0.25299-0.25537 0.41664-0.047435 0.047436-0.071153 0.063248-0.09645 0.063248-0.01344 0-0.033206-0.015812-0.033206-0.059294v-0.4032c2e-7 -0.052179-0.015021-0.075107-0.058504-0.075107h-0.32651c-0.033205 0-0.05297 0.023718-0.05297 0.047436 0 0.048227 0.075107 0.060085 0.083013 0.19765v0.30043c0 0.06641-0.01265 0.078269-0.038739 0.078269-0.071154 0-0.24192-0.25378-0.34312-0.54472-0.020556-0.056132-0.04032-0.07906-0.094078-0.07906h-0.20714c-0.059295 0-0.071154 0.027671-0.071154 0.057714 0 0.053761 0.071154 0.32177 0.3281 0.67596 0.17156 0.24192 0.41269 0.37316 0.63248 0.37316 0.13203 0 0.14863-0.029252 0.14863-0.07906 0-0.23085-0.011858-0.25299 0.053761-0.25299 0.031624 0 0.083803 0.015812 0.20714 0.13203 0.14073 0.13836 0.16445 0.20002 0.24271 0.20002h0.20793c0.059295 0 0.089334-0.029252 0.071153-0.086963-0.039529-0.12017-0.30517-0.36842-0.31782-0.38502z" stroke-width=".079059"/>
</svg>
